<?xml version="1.0" encoding="UTF-8"?>
<svg xmlns="http://www.w3.org/2000/svg" xmlns:xlink="http://www.w3.org/1999/xlink" version="1.1" width="500px" height="500px" viewBox="0 0 500 500"><defs><rect id="r0" width="13" height="13" fill="#000000"/></defs><rect x="0" y="0" width="500" height="500" fill="#fefefe"/><use x="61" y="61" xlink:href="#r0"/><use x="74" y="61" xlink:href="#r0"/><use x="87" y="61" xlink:href="#r0"/><use x="100" y="61" xlink:href="#r0"/><use x="113" y="61" xlink:href="#r0"/><use x="126" y="61" xlink:href="#r0"/><use x="139" y="61" xlink:href="#r0"/><use x="178" y="61" xlink:href="#r0"/><use x="230" y="61" xlink:href="#r0"/><use x="269" y="61" xlink:href="#r0"/><use x="308" y="61" xlink:href="#r0"/><use x="321" y="61" xlink:href="#r0"/><use x="347" y="61" xlink:href="#r0"/><use x="360" y="61" xlink:href="#r0"/><use x="373" y="61" xlink:href="#r0"/><use x="386" y="61" xlink:href="#r0"/><use x="399" y="61" xlink:href="#r0"/><use x="412" y="61" xlink:href="#r0"/><use x="425" y="61" xlink:href="#r0"/><use x="61" y="74" xlink:href="#r0"/><use x="139" y="74" xlink:href="#r0"/><use x="165" y="74" xlink:href="#r0"/><use x="178" y="74" xlink:href="#r0"/><use x="204" y="74" xlink:href="#r0"/><use x="217" y="74" xlink:href="#r0"/><use x="243" y="74" xlink:href="#r0"/><use x="256" y="74" xlink:href="#r0"/><use x="269" y="74" xlink:href="#r0"/><use x="282" y="74" xlink:href="#r0"/><use x="295" y="74" xlink:href="#r0"/><use x="321" y="74" xlink:href="#r0"/><use x="347" y="74" xlink:href="#r0"/><use x="425" y="74" xlink:href="#r0"/><use x="61" y="87" xlink:href="#r0"/><use x="87" y="87" xlink:href="#r0"/><use x="100" y="87" xlink:href="#r0"/><use x="113" y="87" xlink:href="#r0"/><use x="139" y="87" xlink:href="#r0"/><use x="178" y="87" xlink:href="#r0"/><use x="191" y="87" xlink:href="#r0"/><use x="204" y="87" xlink:href="#r0"/><use x="256" y="87" xlink:href="#r0"/><use x="295" y="87" xlink:href="#r0"/><use x="347" y="87" xlink:href="#r0"/><use x="373" y="87" xlink:href="#r0"/><use x="386" y="87" xlink:href="#r0"/><use x="399" y="87" xlink:href="#r0"/><use x="425" y="87" xlink:href="#r0"/><use x="61" y="100" xlink:href="#r0"/><use x="87" y="100" xlink:href="#r0"/><use x="100" y="100" xlink:href="#r0"/><use x="113" y="100" xlink:href="#r0"/><use x="139" y="100" xlink:href="#r0"/><use x="165" y="100" xlink:href="#r0"/><use x="178" y="100" xlink:href="#r0"/><use x="204" y="100" xlink:href="#r0"/><use x="256" y="100" xlink:href="#r0"/><use x="282" y="100" xlink:href="#r0"/><use x="295" y="100" xlink:href="#r0"/><use x="347" y="100" xlink:href="#r0"/><use x="373" y="100" xlink:href="#r0"/><use x="386" y="100" xlink:href="#r0"/><use x="399" y="100" xlink:href="#r0"/><use x="425" y="100" xlink:href="#r0"/><use x="61" y="113" xlink:href="#r0"/><use x="87" y="113" xlink:href="#r0"/><use x="100" y="113" xlink:href="#r0"/><use x="113" y="113" xlink:href="#r0"/><use x="139" y="113" xlink:href="#r0"/><use x="191" y="113" xlink:href="#r0"/><use x="217" y="113" xlink:href="#r0"/><use x="230" y="113" xlink:href="#r0"/><use x="269" y="113" xlink:href="#r0"/><use x="282" y="113" xlink:href="#r0"/><use x="295" y="113" xlink:href="#r0"/><use x="308" y="113" xlink:href="#r0"/><use x="321" y="113" xlink:href="#r0"/><use x="347" y="113" xlink:href="#r0"/><use x="373" y="113" xlink:href="#r0"/><use x="386" y="113" xlink:href="#r0"/><use x="399" y="113" xlink:href="#r0"/><use x="425" y="113" xlink:href="#r0"/><use x="61" y="126" xlink:href="#r0"/><use x="139" y="126" xlink:href="#r0"/><use x="165" y="126" xlink:href="#r0"/><use x="191" y="126" xlink:href="#r0"/><use x="230" y="126" xlink:href="#r0"/><use x="243" y="126" xlink:href="#r0"/><use x="256" y="126" xlink:href="#r0"/><use x="347" y="126" xlink:href="#r0"/><use x="425" y="126" xlink:href="#r0"/><use x="61" y="139" xlink:href="#r0"/><use x="74" y="139" xlink:href="#r0"/><use x="87" y="139" xlink:href="#r0"/><use x="100" y="139" xlink:href="#r0"/><use x="113" y="139" xlink:href="#r0"/><use x="126" y="139" xlink:href="#r0"/><use x="139" y="139" xlink:href="#r0"/><use x="165" y="139" xlink:href="#r0"/><use x="191" y="139" xlink:href="#r0"/><use x="217" y="139" xlink:href="#r0"/><use x="243" y="139" xlink:href="#r0"/><use x="269" y="139" xlink:href="#r0"/><use x="295" y="139" xlink:href="#r0"/><use x="321" y="139" xlink:href="#r0"/><use x="347" y="139" xlink:href="#r0"/><use x="360" y="139" xlink:href="#r0"/><use x="373" y="139" xlink:href="#r0"/><use x="386" y="139" xlink:href="#r0"/><use x="399" y="139" xlink:href="#r0"/><use x="412" y="139" xlink:href="#r0"/><use x="425" y="139" xlink:href="#r0"/><use x="217" y="152" xlink:href="#r0"/><use x="230" y="152" xlink:href="#r0"/><use x="269" y="152" xlink:href="#r0"/><use x="308" y="152" xlink:href="#r0"/><use x="321" y="152" xlink:href="#r0"/><use x="61" y="165" xlink:href="#r0"/><use x="74" y="165" xlink:href="#r0"/><use x="87" y="165" xlink:href="#r0"/><use x="100" y="165" xlink:href="#r0"/><use x="113" y="165" xlink:href="#r0"/><use x="139" y="165" xlink:href="#r0"/><use x="152" y="165" xlink:href="#r0"/><use x="165" y="165" xlink:href="#r0"/><use x="178" y="165" xlink:href="#r0"/><use x="191" y="165" xlink:href="#r0"/><use x="217" y="165" xlink:href="#r0"/><use x="243" y="165" xlink:href="#r0"/><use x="282" y="165" xlink:href="#r0"/><use x="308" y="165" xlink:href="#r0"/><use x="334" y="165" xlink:href="#r0"/><use x="360" y="165" xlink:href="#r0"/><use x="386" y="165" xlink:href="#r0"/><use x="412" y="165" xlink:href="#r0"/><use x="100" y="178" xlink:href="#r0"/><use x="178" y="178" xlink:href="#r0"/><use x="269" y="178" xlink:href="#r0"/><use x="282" y="178" xlink:href="#r0"/><use x="295" y="178" xlink:href="#r0"/><use x="308" y="178" xlink:href="#r0"/><use x="321" y="178" xlink:href="#r0"/><use x="334" y="178" xlink:href="#r0"/><use x="347" y="178" xlink:href="#r0"/><use x="360" y="178" xlink:href="#r0"/><use x="373" y="178" xlink:href="#r0"/><use x="386" y="178" xlink:href="#r0"/><use x="399" y="178" xlink:href="#r0"/><use x="412" y="178" xlink:href="#r0"/><use x="425" y="178" xlink:href="#r0"/><use x="113" y="191" xlink:href="#r0"/><use x="126" y="191" xlink:href="#r0"/><use x="139" y="191" xlink:href="#r0"/><use x="165" y="191" xlink:href="#r0"/><use x="178" y="191" xlink:href="#r0"/><use x="204" y="191" xlink:href="#r0"/><use x="217" y="191" xlink:href="#r0"/><use x="256" y="191" xlink:href="#r0"/><use x="269" y="191" xlink:href="#r0"/><use x="295" y="191" xlink:href="#r0"/><use x="321" y="191" xlink:href="#r0"/><use x="399" y="191" xlink:href="#r0"/><use x="412" y="191" xlink:href="#r0"/><use x="74" y="204" xlink:href="#r0"/><use x="87" y="204" xlink:href="#r0"/><use x="100" y="204" xlink:href="#r0"/><use x="113" y="204" xlink:href="#r0"/><use x="165" y="204" xlink:href="#r0"/><use x="178" y="204" xlink:href="#r0"/><use x="191" y="204" xlink:href="#r0"/><use x="204" y="204" xlink:href="#r0"/><use x="243" y="204" xlink:href="#r0"/><use x="269" y="204" xlink:href="#r0"/><use x="360" y="204" xlink:href="#r0"/><use x="373" y="204" xlink:href="#r0"/><use x="425" y="204" xlink:href="#r0"/><use x="61" y="217" xlink:href="#r0"/><use x="87" y="217" xlink:href="#r0"/><use x="100" y="217" xlink:href="#r0"/><use x="126" y="217" xlink:href="#r0"/><use x="139" y="217" xlink:href="#r0"/><use x="165" y="217" xlink:href="#r0"/><use x="178" y="217" xlink:href="#r0"/><use x="204" y="217" xlink:href="#r0"/><use x="282" y="217" xlink:href="#r0"/><use x="308" y="217" xlink:href="#r0"/><use x="360" y="217" xlink:href="#r0"/><use x="386" y="217" xlink:href="#r0"/><use x="399" y="217" xlink:href="#r0"/><use x="74" y="230" xlink:href="#r0"/><use x="100" y="230" xlink:href="#r0"/><use x="126" y="230" xlink:href="#r0"/><use x="165" y="230" xlink:href="#r0"/><use x="191" y="230" xlink:href="#r0"/><use x="217" y="230" xlink:href="#r0"/><use x="230" y="230" xlink:href="#r0"/><use x="243" y="230" xlink:href="#r0"/><use x="269" y="230" xlink:href="#r0"/><use x="282" y="230" xlink:href="#r0"/><use x="295" y="230" xlink:href="#r0"/><use x="308" y="230" xlink:href="#r0"/><use x="321" y="230" xlink:href="#r0"/><use x="334" y="230" xlink:href="#r0"/><use x="347" y="230" xlink:href="#r0"/><use x="360" y="230" xlink:href="#r0"/><use x="373" y="230" xlink:href="#r0"/><use x="425" y="230" xlink:href="#r0"/><use x="74" y="243" xlink:href="#r0"/><use x="100" y="243" xlink:href="#r0"/><use x="139" y="243" xlink:href="#r0"/><use x="178" y="243" xlink:href="#r0"/><use x="191" y="243" xlink:href="#r0"/><use x="230" y="243" xlink:href="#r0"/><use x="243" y="243" xlink:href="#r0"/><use x="256" y="243" xlink:href="#r0"/><use x="269" y="243" xlink:href="#r0"/><use x="282" y="243" xlink:href="#r0"/><use x="321" y="243" xlink:href="#r0"/><use x="347" y="243" xlink:href="#r0"/><use x="360" y="243" xlink:href="#r0"/><use x="373" y="243" xlink:href="#r0"/><use x="412" y="243" xlink:href="#r0"/><use x="61" y="256" xlink:href="#r0"/><use x="74" y="256" xlink:href="#r0"/><use x="87" y="256" xlink:href="#r0"/><use x="165" y="256" xlink:href="#r0"/><use x="191" y="256" xlink:href="#r0"/><use x="217" y="256" xlink:href="#r0"/><use x="230" y="256" xlink:href="#r0"/><use x="256" y="256" xlink:href="#r0"/><use x="295" y="256" xlink:href="#r0"/><use x="321" y="256" xlink:href="#r0"/><use x="334" y="256" xlink:href="#r0"/><use x="347" y="256" xlink:href="#r0"/><use x="360" y="256" xlink:href="#r0"/><use x="373" y="256" xlink:href="#r0"/><use x="412" y="256" xlink:href="#r0"/><use x="425" y="256" xlink:href="#r0"/><use x="61" y="269" xlink:href="#r0"/><use x="74" y="269" xlink:href="#r0"/><use x="87" y="269" xlink:href="#r0"/><use x="126" y="269" xlink:href="#r0"/><use x="139" y="269" xlink:href="#r0"/><use x="178" y="269" xlink:href="#r0"/><use x="191" y="269" xlink:href="#r0"/><use x="217" y="269" xlink:href="#r0"/><use x="243" y="269" xlink:href="#r0"/><use x="282" y="269" xlink:href="#r0"/><use x="308" y="269" xlink:href="#r0"/><use x="399" y="269" xlink:href="#r0"/><use x="412" y="269" xlink:href="#r0"/><use x="61" y="282" xlink:href="#r0"/><use x="87" y="282" xlink:href="#r0"/><use x="113" y="282" xlink:href="#r0"/><use x="126" y="282" xlink:href="#r0"/><use x="165" y="282" xlink:href="#r0"/><use x="178" y="282" xlink:href="#r0"/><use x="269" y="282" xlink:href="#r0"/><use x="308" y="282" xlink:href="#r0"/><use x="321" y="282" xlink:href="#r0"/><use x="347" y="282" xlink:href="#r0"/><use x="360" y="282" xlink:href="#r0"/><use x="373" y="282" xlink:href="#r0"/><use x="386" y="282" xlink:href="#r0"/><use x="399" y="282" xlink:href="#r0"/><use x="425" y="282" xlink:href="#r0"/><use x="61" y="295" xlink:href="#r0"/><use x="139" y="295" xlink:href="#r0"/><use x="152" y="295" xlink:href="#r0"/><use x="178" y="295" xlink:href="#r0"/><use x="191" y="295" xlink:href="#r0"/><use x="204" y="295" xlink:href="#r0"/><use x="217" y="295" xlink:href="#r0"/><use x="256" y="295" xlink:href="#r0"/><use x="321" y="295" xlink:href="#r0"/><use x="360" y="295" xlink:href="#r0"/><use x="399" y="295" xlink:href="#r0"/><use x="412" y="295" xlink:href="#r0"/><use x="61" y="308" xlink:href="#r0"/><use x="100" y="308" xlink:href="#r0"/><use x="178" y="308" xlink:href="#r0"/><use x="204" y="308" xlink:href="#r0"/><use x="243" y="308" xlink:href="#r0"/><use x="256" y="308" xlink:href="#r0"/><use x="269" y="308" xlink:href="#r0"/><use x="295" y="308" xlink:href="#r0"/><use x="321" y="308" xlink:href="#r0"/><use x="334" y="308" xlink:href="#r0"/><use x="360" y="308" xlink:href="#r0"/><use x="61" y="321" xlink:href="#r0"/><use x="87" y="321" xlink:href="#r0"/><use x="126" y="321" xlink:href="#r0"/><use x="139" y="321" xlink:href="#r0"/><use x="152" y="321" xlink:href="#r0"/><use x="178" y="321" xlink:href="#r0"/><use x="204" y="321" xlink:href="#r0"/><use x="256" y="321" xlink:href="#r0"/><use x="269" y="321" xlink:href="#r0"/><use x="282" y="321" xlink:href="#r0"/><use x="321" y="321" xlink:href="#r0"/><use x="334" y="321" xlink:href="#r0"/><use x="347" y="321" xlink:href="#r0"/><use x="360" y="321" xlink:href="#r0"/><use x="373" y="321" xlink:href="#r0"/><use x="386" y="321" xlink:href="#r0"/><use x="399" y="321" xlink:href="#r0"/><use x="412" y="321" xlink:href="#r0"/><use x="165" y="334" xlink:href="#r0"/><use x="191" y="334" xlink:href="#r0"/><use x="217" y="334" xlink:href="#r0"/><use x="230" y="334" xlink:href="#r0"/><use x="243" y="334" xlink:href="#r0"/><use x="269" y="334" xlink:href="#r0"/><use x="295" y="334" xlink:href="#r0"/><use x="321" y="334" xlink:href="#r0"/><use x="373" y="334" xlink:href="#r0"/><use x="425" y="334" xlink:href="#r0"/><use x="61" y="347" xlink:href="#r0"/><use x="74" y="347" xlink:href="#r0"/><use x="87" y="347" xlink:href="#r0"/><use x="100" y="347" xlink:href="#r0"/><use x="113" y="347" xlink:href="#r0"/><use x="126" y="347" xlink:href="#r0"/><use x="139" y="347" xlink:href="#r0"/><use x="165" y="347" xlink:href="#r0"/><use x="191" y="347" xlink:href="#r0"/><use x="230" y="347" xlink:href="#r0"/><use x="243" y="347" xlink:href="#r0"/><use x="256" y="347" xlink:href="#r0"/><use x="269" y="347" xlink:href="#r0"/><use x="308" y="347" xlink:href="#r0"/><use x="321" y="347" xlink:href="#r0"/><use x="347" y="347" xlink:href="#r0"/><use x="373" y="347" xlink:href="#r0"/><use x="412" y="347" xlink:href="#r0"/><use x="61" y="360" xlink:href="#r0"/><use x="139" y="360" xlink:href="#r0"/><use x="191" y="360" xlink:href="#r0"/><use x="217" y="360" xlink:href="#r0"/><use x="230" y="360" xlink:href="#r0"/><use x="256" y="360" xlink:href="#r0"/><use x="308" y="360" xlink:href="#r0"/><use x="321" y="360" xlink:href="#r0"/><use x="373" y="360" xlink:href="#r0"/><use x="61" y="373" xlink:href="#r0"/><use x="87" y="373" xlink:href="#r0"/><use x="100" y="373" xlink:href="#r0"/><use x="113" y="373" xlink:href="#r0"/><use x="139" y="373" xlink:href="#r0"/><use x="165" y="373" xlink:href="#r0"/><use x="191" y="373" xlink:href="#r0"/><use x="217" y="373" xlink:href="#r0"/><use x="243" y="373" xlink:href="#r0"/><use x="256" y="373" xlink:href="#r0"/><use x="282" y="373" xlink:href="#r0"/><use x="321" y="373" xlink:href="#r0"/><use x="334" y="373" xlink:href="#r0"/><use x="347" y="373" xlink:href="#r0"/><use x="360" y="373" xlink:href="#r0"/><use x="373" y="373" xlink:href="#r0"/><use x="399" y="373" xlink:href="#r0"/><use x="61" y="386" xlink:href="#r0"/><use x="87" y="386" xlink:href="#r0"/><use x="100" y="386" xlink:href="#r0"/><use x="113" y="386" xlink:href="#r0"/><use x="139" y="386" xlink:href="#r0"/><use x="165" y="386" xlink:href="#r0"/><use x="178" y="386" xlink:href="#r0"/><use x="269" y="386" xlink:href="#r0"/><use x="308" y="386" xlink:href="#r0"/><use x="321" y="386" xlink:href="#r0"/><use x="334" y="386" xlink:href="#r0"/><use x="386" y="386" xlink:href="#r0"/><use x="399" y="386" xlink:href="#r0"/><use x="412" y="386" xlink:href="#r0"/><use x="425" y="386" xlink:href="#r0"/><use x="61" y="399" xlink:href="#r0"/><use x="87" y="399" xlink:href="#r0"/><use x="100" y="399" xlink:href="#r0"/><use x="113" y="399" xlink:href="#r0"/><use x="139" y="399" xlink:href="#r0"/><use x="165" y="399" xlink:href="#r0"/><use x="191" y="399" xlink:href="#r0"/><use x="204" y="399" xlink:href="#r0"/><use x="217" y="399" xlink:href="#r0"/><use x="256" y="399" xlink:href="#r0"/><use x="282" y="399" xlink:href="#r0"/><use x="295" y="399" xlink:href="#r0"/><use x="334" y="399" xlink:href="#r0"/><use x="347" y="399" xlink:href="#r0"/><use x="373" y="399" xlink:href="#r0"/><use x="399" y="399" xlink:href="#r0"/><use x="412" y="399" xlink:href="#r0"/><use x="61" y="412" xlink:href="#r0"/><use x="139" y="412" xlink:href="#r0"/><use x="165" y="412" xlink:href="#r0"/><use x="191" y="412" xlink:href="#r0"/><use x="204" y="412" xlink:href="#r0"/><use x="243" y="412" xlink:href="#r0"/><use x="269" y="412" xlink:href="#r0"/><use x="295" y="412" xlink:href="#r0"/><use x="308" y="412" xlink:href="#r0"/><use x="321" y="412" xlink:href="#r0"/><use x="347" y="412" xlink:href="#r0"/><use x="360" y="412" xlink:href="#r0"/><use x="373" y="412" xlink:href="#r0"/><use x="412" y="412" xlink:href="#r0"/><use x="61" y="425" xlink:href="#r0"/><use x="74" y="425" xlink:href="#r0"/><use x="87" y="425" xlink:href="#r0"/><use x="100" y="425" xlink:href="#r0"/><use x="113" y="425" xlink:href="#r0"/><use x="126" y="425" xlink:href="#r0"/><use x="139" y="425" xlink:href="#r0"/><use x="165" y="425" xlink:href="#r0"/><use x="178" y="425" xlink:href="#r0"/><use x="204" y="425" xlink:href="#r0"/><use x="282" y="425" xlink:href="#r0"/><use x="308" y="425" xlink:href="#r0"/><use x="347" y="425" xlink:href="#r0"/><use x="373" y="425" xlink:href="#r0"/><use x="386" y="425" xlink:href="#r0"/><use x="399" y="425" xlink:href="#r0"/></svg>
