<?xml version="1.0" encoding="UTF-8"?>
<svg xmlns="http://www.w3.org/2000/svg" xmlns:xlink="http://www.w3.org/1999/xlink" version="1.1" width="500px" height="500px" viewBox="0 0 500 500"><defs><rect id="r0" width="15" height="15" fill="#000000"/></defs><rect x="0" y="0" width="500" height="500" fill="#fefefe"/><use x="62" y="62" xlink:href="#r0"/><use x="77" y="62" xlink:href="#r0"/><use x="92" y="62" xlink:href="#r0"/><use x="107" y="62" xlink:href="#r0"/><use x="122" y="62" xlink:href="#r0"/><use x="137" y="62" xlink:href="#r0"/><use x="152" y="62" xlink:href="#r0"/><use x="182" y="62" xlink:href="#r0"/><use x="197" y="62" xlink:href="#r0"/><use x="242" y="62" xlink:href="#r0"/><use x="272" y="62" xlink:href="#r0"/><use x="287" y="62" xlink:href="#r0"/><use x="302" y="62" xlink:href="#r0"/><use x="332" y="62" xlink:href="#r0"/><use x="347" y="62" xlink:href="#r0"/><use x="362" y="62" xlink:href="#r0"/><use x="377" y="62" xlink:href="#r0"/><use x="392" y="62" xlink:href="#r0"/><use x="407" y="62" xlink:href="#r0"/><use x="422" y="62" xlink:href="#r0"/><use x="62" y="77" xlink:href="#r0"/><use x="152" y="77" xlink:href="#r0"/><use x="182" y="77" xlink:href="#r0"/><use x="197" y="77" xlink:href="#r0"/><use x="212" y="77" xlink:href="#r0"/><use x="257" y="77" xlink:href="#r0"/><use x="272" y="77" xlink:href="#r0"/><use x="332" y="77" xlink:href="#r0"/><use x="422" y="77" xlink:href="#r0"/><use x="62" y="92" xlink:href="#r0"/><use x="92" y="92" xlink:href="#r0"/><use x="107" y="92" xlink:href="#r0"/><use x="122" y="92" xlink:href="#r0"/><use x="152" y="92" xlink:href="#r0"/><use x="182" y="92" xlink:href="#r0"/><use x="212" y="92" xlink:href="#r0"/><use x="227" y="92" xlink:href="#r0"/><use x="272" y="92" xlink:href="#r0"/><use x="332" y="92" xlink:href="#r0"/><use x="362" y="92" xlink:href="#r0"/><use x="377" y="92" xlink:href="#r0"/><use x="392" y="92" xlink:href="#r0"/><use x="422" y="92" xlink:href="#r0"/><use x="62" y="107" xlink:href="#r0"/><use x="92" y="107" xlink:href="#r0"/><use x="107" y="107" xlink:href="#r0"/><use x="122" y="107" xlink:href="#r0"/><use x="152" y="107" xlink:href="#r0"/><use x="182" y="107" xlink:href="#r0"/><use x="197" y="107" xlink:href="#r0"/><use x="242" y="107" xlink:href="#r0"/><use x="257" y="107" xlink:href="#r0"/><use x="272" y="107" xlink:href="#r0"/><use x="287" y="107" xlink:href="#r0"/><use x="302" y="107" xlink:href="#r0"/><use x="332" y="107" xlink:href="#r0"/><use x="362" y="107" xlink:href="#r0"/><use x="377" y="107" xlink:href="#r0"/><use x="392" y="107" xlink:href="#r0"/><use x="422" y="107" xlink:href="#r0"/><use x="62" y="122" xlink:href="#r0"/><use x="92" y="122" xlink:href="#r0"/><use x="107" y="122" xlink:href="#r0"/><use x="122" y="122" xlink:href="#r0"/><use x="152" y="122" xlink:href="#r0"/><use x="227" y="122" xlink:href="#r0"/><use x="242" y="122" xlink:href="#r0"/><use x="257" y="122" xlink:href="#r0"/><use x="287" y="122" xlink:href="#r0"/><use x="302" y="122" xlink:href="#r0"/><use x="332" y="122" xlink:href="#r0"/><use x="362" y="122" xlink:href="#r0"/><use x="377" y="122" xlink:href="#r0"/><use x="392" y="122" xlink:href="#r0"/><use x="422" y="122" xlink:href="#r0"/><use x="62" y="137" xlink:href="#r0"/><use x="152" y="137" xlink:href="#r0"/><use x="182" y="137" xlink:href="#r0"/><use x="272" y="137" xlink:href="#r0"/><use x="302" y="137" xlink:href="#r0"/><use x="332" y="137" xlink:href="#r0"/><use x="422" y="137" xlink:href="#r0"/><use x="62" y="152" xlink:href="#r0"/><use x="77" y="152" xlink:href="#r0"/><use x="92" y="152" xlink:href="#r0"/><use x="107" y="152" xlink:href="#r0"/><use x="122" y="152" xlink:href="#r0"/><use x="137" y="152" xlink:href="#r0"/><use x="152" y="152" xlink:href="#r0"/><use x="182" y="152" xlink:href="#r0"/><use x="212" y="152" xlink:href="#r0"/><use x="242" y="152" xlink:href="#r0"/><use x="272" y="152" xlink:href="#r0"/><use x="302" y="152" xlink:href="#r0"/><use x="332" y="152" xlink:href="#r0"/><use x="347" y="152" xlink:href="#r0"/><use x="362" y="152" xlink:href="#r0"/><use x="377" y="152" xlink:href="#r0"/><use x="392" y="152" xlink:href="#r0"/><use x="407" y="152" xlink:href="#r0"/><use x="422" y="152" xlink:href="#r0"/><use x="197" y="167" xlink:href="#r0"/><use x="227" y="167" xlink:href="#r0"/><use x="62" y="182" xlink:href="#r0"/><use x="77" y="182" xlink:href="#r0"/><use x="122" y="182" xlink:href="#r0"/><use x="137" y="182" xlink:href="#r0"/><use x="152" y="182" xlink:href="#r0"/><use x="287" y="182" xlink:href="#r0"/><use x="347" y="182" xlink:href="#r0"/><use x="377" y="182" xlink:href="#r0"/><use x="392" y="182" xlink:href="#r0"/><use x="407" y="182" xlink:href="#r0"/><use x="422" y="182" xlink:href="#r0"/><use x="77" y="197" xlink:href="#r0"/><use x="107" y="197" xlink:href="#r0"/><use x="137" y="197" xlink:href="#r0"/><use x="167" y="197" xlink:href="#r0"/><use x="182" y="197" xlink:href="#r0"/><use x="197" y="197" xlink:href="#r0"/><use x="212" y="197" xlink:href="#r0"/><use x="227" y="197" xlink:href="#r0"/><use x="242" y="197" xlink:href="#r0"/><use x="257" y="197" xlink:href="#r0"/><use x="272" y="197" xlink:href="#r0"/><use x="287" y="197" xlink:href="#r0"/><use x="347" y="197" xlink:href="#r0"/><use x="362" y="197" xlink:href="#r0"/><use x="377" y="197" xlink:href="#r0"/><use x="407" y="197" xlink:href="#r0"/><use x="92" y="212" xlink:href="#r0"/><use x="122" y="212" xlink:href="#r0"/><use x="152" y="212" xlink:href="#r0"/><use x="227" y="212" xlink:href="#r0"/><use x="272" y="212" xlink:href="#r0"/><use x="287" y="212" xlink:href="#r0"/><use x="302" y="212" xlink:href="#r0"/><use x="332" y="212" xlink:href="#r0"/><use x="347" y="212" xlink:href="#r0"/><use x="407" y="212" xlink:href="#r0"/><use x="77" y="227" xlink:href="#r0"/><use x="92" y="227" xlink:href="#r0"/><use x="107" y="227" xlink:href="#r0"/><use x="122" y="227" xlink:href="#r0"/><use x="137" y="227" xlink:href="#r0"/><use x="212" y="227" xlink:href="#r0"/><use x="227" y="227" xlink:href="#r0"/><use x="272" y="227" xlink:href="#r0"/><use x="287" y="227" xlink:href="#r0"/><use x="332" y="227" xlink:href="#r0"/><use x="377" y="227" xlink:href="#r0"/><use x="392" y="227" xlink:href="#r0"/><use x="407" y="227" xlink:href="#r0"/><use x="422" y="227" xlink:href="#r0"/><use x="77" y="242" xlink:href="#r0"/><use x="92" y="242" xlink:href="#r0"/><use x="107" y="242" xlink:href="#r0"/><use x="152" y="242" xlink:href="#r0"/><use x="167" y="242" xlink:href="#r0"/><use x="182" y="242" xlink:href="#r0"/><use x="212" y="242" xlink:href="#r0"/><use x="302" y="242" xlink:href="#r0"/><use x="317" y="242" xlink:href="#r0"/><use x="332" y="242" xlink:href="#r0"/><use x="392" y="242" xlink:href="#r0"/><use x="422" y="242" xlink:href="#r0"/><use x="62" y="257" xlink:href="#r0"/><use x="122" y="257" xlink:href="#r0"/><use x="137" y="257" xlink:href="#r0"/><use x="197" y="257" xlink:href="#r0"/><use x="227" y="257" xlink:href="#r0"/><use x="242" y="257" xlink:href="#r0"/><use x="257" y="257" xlink:href="#r0"/><use x="287" y="257" xlink:href="#r0"/><use x="302" y="257" xlink:href="#r0"/><use x="347" y="257" xlink:href="#r0"/><use x="362" y="257" xlink:href="#r0"/><use x="377" y="257" xlink:href="#r0"/><use x="392" y="257" xlink:href="#r0"/><use x="407" y="257" xlink:href="#r0"/><use x="92" y="272" xlink:href="#r0"/><use x="122" y="272" xlink:href="#r0"/><use x="152" y="272" xlink:href="#r0"/><use x="167" y="272" xlink:href="#r0"/><use x="182" y="272" xlink:href="#r0"/><use x="197" y="272" xlink:href="#r0"/><use x="212" y="272" xlink:href="#r0"/><use x="227" y="272" xlink:href="#r0"/><use x="272" y="272" xlink:href="#r0"/><use x="287" y="272" xlink:href="#r0"/><use x="302" y="272" xlink:href="#r0"/><use x="362" y="272" xlink:href="#r0"/><use x="377" y="272" xlink:href="#r0"/><use x="407" y="272" xlink:href="#r0"/><use x="92" y="287" xlink:href="#r0"/><use x="122" y="287" xlink:href="#r0"/><use x="137" y="287" xlink:href="#r0"/><use x="347" y="287" xlink:href="#r0"/><use x="362" y="287" xlink:href="#r0"/><use x="377" y="287" xlink:href="#r0"/><use x="392" y="287" xlink:href="#r0"/><use x="62" y="302" xlink:href="#r0"/><use x="77" y="302" xlink:href="#r0"/><use x="107" y="302" xlink:href="#r0"/><use x="122" y="302" xlink:href="#r0"/><use x="152" y="302" xlink:href="#r0"/><use x="167" y="302" xlink:href="#r0"/><use x="182" y="302" xlink:href="#r0"/><use x="287" y="302" xlink:href="#r0"/><use x="302" y="302" xlink:href="#r0"/><use x="317" y="302" xlink:href="#r0"/><use x="332" y="302" xlink:href="#r0"/><use x="347" y="302" xlink:href="#r0"/><use x="362" y="302" xlink:href="#r0"/><use x="377" y="302" xlink:href="#r0"/><use x="392" y="302" xlink:href="#r0"/><use x="422" y="302" xlink:href="#r0"/><use x="182" y="317" xlink:href="#r0"/><use x="212" y="317" xlink:href="#r0"/><use x="227" y="317" xlink:href="#r0"/><use x="242" y="317" xlink:href="#r0"/><use x="257" y="317" xlink:href="#r0"/><use x="272" y="317" xlink:href="#r0"/><use x="302" y="317" xlink:href="#r0"/><use x="362" y="317" xlink:href="#r0"/><use x="407" y="317" xlink:href="#r0"/><use x="62" y="332" xlink:href="#r0"/><use x="77" y="332" xlink:href="#r0"/><use x="92" y="332" xlink:href="#r0"/><use x="107" y="332" xlink:href="#r0"/><use x="122" y="332" xlink:href="#r0"/><use x="137" y="332" xlink:href="#r0"/><use x="152" y="332" xlink:href="#r0"/><use x="227" y="332" xlink:href="#r0"/><use x="242" y="332" xlink:href="#r0"/><use x="272" y="332" xlink:href="#r0"/><use x="302" y="332" xlink:href="#r0"/><use x="332" y="332" xlink:href="#r0"/><use x="362" y="332" xlink:href="#r0"/><use x="377" y="332" xlink:href="#r0"/><use x="392" y="332" xlink:href="#r0"/><use x="407" y="332" xlink:href="#r0"/><use x="62" y="347" xlink:href="#r0"/><use x="152" y="347" xlink:href="#r0"/><use x="182" y="347" xlink:href="#r0"/><use x="212" y="347" xlink:href="#r0"/><use x="227" y="347" xlink:href="#r0"/><use x="242" y="347" xlink:href="#r0"/><use x="272" y="347" xlink:href="#r0"/><use x="302" y="347" xlink:href="#r0"/><use x="362" y="347" xlink:href="#r0"/><use x="377" y="347" xlink:href="#r0"/><use x="392" y="347" xlink:href="#r0"/><use x="62" y="362" xlink:href="#r0"/><use x="92" y="362" xlink:href="#r0"/><use x="107" y="362" xlink:href="#r0"/><use x="122" y="362" xlink:href="#r0"/><use x="152" y="362" xlink:href="#r0"/><use x="182" y="362" xlink:href="#r0"/><use x="197" y="362" xlink:href="#r0"/><use x="212" y="362" xlink:href="#r0"/><use x="227" y="362" xlink:href="#r0"/><use x="242" y="362" xlink:href="#r0"/><use x="302" y="362" xlink:href="#r0"/><use x="317" y="362" xlink:href="#r0"/><use x="332" y="362" xlink:href="#r0"/><use x="347" y="362" xlink:href="#r0"/><use x="362" y="362" xlink:href="#r0"/><use x="392" y="362" xlink:href="#r0"/><use x="407" y="362" xlink:href="#r0"/><use x="62" y="377" xlink:href="#r0"/><use x="92" y="377" xlink:href="#r0"/><use x="107" y="377" xlink:href="#r0"/><use x="122" y="377" xlink:href="#r0"/><use x="152" y="377" xlink:href="#r0"/><use x="197" y="377" xlink:href="#r0"/><use x="227" y="377" xlink:href="#r0"/><use x="242" y="377" xlink:href="#r0"/><use x="257" y="377" xlink:href="#r0"/><use x="272" y="377" xlink:href="#r0"/><use x="287" y="377" xlink:href="#r0"/><use x="317" y="377" xlink:href="#r0"/><use x="332" y="377" xlink:href="#r0"/><use x="347" y="377" xlink:href="#r0"/><use x="377" y="377" xlink:href="#r0"/><use x="392" y="377" xlink:href="#r0"/><use x="407" y="377" xlink:href="#r0"/><use x="422" y="377" xlink:href="#r0"/><use x="62" y="392" xlink:href="#r0"/><use x="92" y="392" xlink:href="#r0"/><use x="107" y="392" xlink:href="#r0"/><use x="122" y="392" xlink:href="#r0"/><use x="152" y="392" xlink:href="#r0"/><use x="197" y="392" xlink:href="#r0"/><use x="212" y="392" xlink:href="#r0"/><use x="227" y="392" xlink:href="#r0"/><use x="257" y="392" xlink:href="#r0"/><use x="302" y="392" xlink:href="#r0"/><use x="332" y="392" xlink:href="#r0"/><use x="377" y="392" xlink:href="#r0"/><use x="407" y="392" xlink:href="#r0"/><use x="62" y="407" xlink:href="#r0"/><use x="152" y="407" xlink:href="#r0"/><use x="182" y="407" xlink:href="#r0"/><use x="227" y="407" xlink:href="#r0"/><use x="272" y="407" xlink:href="#r0"/><use x="287" y="407" xlink:href="#r0"/><use x="377" y="407" xlink:href="#r0"/><use x="392" y="407" xlink:href="#r0"/><use x="407" y="407" xlink:href="#r0"/><use x="62" y="422" xlink:href="#r0"/><use x="77" y="422" xlink:href="#r0"/><use x="92" y="422" xlink:href="#r0"/><use x="107" y="422" xlink:href="#r0"/><use x="122" y="422" xlink:href="#r0"/><use x="137" y="422" xlink:href="#r0"/><use x="152" y="422" xlink:href="#r0"/><use x="182" y="422" xlink:href="#r0"/><use x="197" y="422" xlink:href="#r0"/><use x="227" y="422" xlink:href="#r0"/><use x="242" y="422" xlink:href="#r0"/><use x="287" y="422" xlink:href="#r0"/><use x="347" y="422" xlink:href="#r0"/><use x="362" y="422" xlink:href="#r0"/><use x="377" y="422" xlink:href="#r0"/><use x="392" y="422" xlink:href="#r0"/><use x="407" y="422" xlink:href="#r0"/><use x="422" y="422" xlink:href="#r0"/></svg>
